<svg width="24" height="24" viewBox="0 0 24 24" fill="none" xmlns="http://www.w3.org/2000/svg">
<path d="M6.11994 11.92C6.23964 11.9729 6.36907 12.0002 6.49994 12.0002C6.63081 12.0002 6.76024 11.9729 6.87994 11.92C7.00269 11.8724 7.11484 11.801 7.20994 11.71L10.2099 8.71C10.3982 8.5217 10.504 8.2663 10.504 8C10.504 7.7337 10.3982 7.4783 10.2099 7.29C10.0216 7.1017 9.76624 6.99591 9.49994 6.99591C9.23364 6.99591 8.97824 7.1017 8.78994 7.29L7.49994 8.59V3C7.49994 2.73478 7.39458 2.48043 7.20705 2.29289C7.01951 2.10536 6.76516 2 6.49994 2C6.23472 2 5.98037 2.10536 5.79283 2.29289C5.6053 2.48043 5.49994 2.73478 5.49994 3V8.59L4.20994 7.29C4.1167 7.19676 4.00601 7.1228 3.88419 7.07234C3.76237 7.02188 3.6318 6.99591 3.49994 6.99591C3.36808 6.99591 3.23751 7.02188 3.11569 7.07234C2.99387 7.1228 2.88318 7.19676 2.78994 7.29C2.6967 7.38324 2.62274 7.49393 2.57228 7.61575C2.52182 7.73757 2.49585 7.86814 2.49585 8C2.49585 8.13186 2.52182 8.26243 2.57228 8.38425C2.62274 8.50607 2.6967 8.61676 2.78994 8.71L5.78994 11.71C5.88505 11.801 5.99719 11.8724 6.11994 11.92ZM18.4999 6H13.4999C13.2347 6 12.9804 6.10536 12.7928 6.29289C12.6053 6.48043 12.4999 6.73478 12.4999 7C12.4999 7.26522 12.6053 7.51957 12.7928 7.70711C12.9804 7.89464 13.2347 8 13.4999 8H18.4999C18.7652 8 19.0195 8.10536 19.207 8.29289C19.3946 8.48043 19.4999 8.73478 19.4999 9V18.72L17.9299 17.27C17.7455 17.0973 17.5026 17.0009 17.2499 17H8.49994C8.23472 17 7.98037 16.8946 7.79283 16.7071C7.6053 16.5196 7.49994 16.2652 7.49994 16V15C7.49994 14.7348 7.39458 14.4804 7.20705 14.2929C7.01951 14.1054 6.76516 14 6.49994 14C6.23472 14 5.98037 14.1054 5.79283 14.2929C5.6053 14.4804 5.49994 14.7348 5.49994 15V16C5.49994 16.7956 5.81601 17.5587 6.37862 18.1213C6.94123 18.6839 7.70429 19 8.49994 19H16.8599L19.8599 21.73C20.0444 21.9027 20.2873 21.9991 20.5399 22C20.6771 21.9985 20.8128 21.9714 20.9399 21.92C21.1188 21.8419 21.2709 21.7132 21.3776 21.5497C21.4842 21.3863 21.5406 21.1952 21.5399 21V9C21.54 8.60265 21.4611 8.20924 21.3078 7.84263C21.1546 7.47603 20.93 7.14352 20.6472 6.86441C20.3643 6.58531 20.0289 6.36517 19.6603 6.21678C19.2917 6.06839 18.8973 5.9947 18.4999 6Z" fill="black"/>
</svg>
