<svg width="24" height="24" viewBox="0 0 24 24" fill="none" xmlns="http://www.w3.org/2000/svg">
<path d="M6.28997 10.3C6.12695 10.4637 6.02565 10.6789 6.0033 10.9088C5.98094 11.1388 6.03891 11.3694 6.16734 11.5615C6.29577 11.7535 6.48675 11.8952 6.70781 11.9624C6.92888 12.0295 7.16638 12.0181 7.37997 11.93C7.5015 11.8756 7.61305 11.8013 7.70997 11.71C7.79992 11.6178 7.87123 11.5092 7.91997 11.39C7.97713 11.2682 8.00455 11.1345 7.99997 11C7.99886 10.7377 7.89471 10.4863 7.70997 10.3C7.61701 10.2063 7.50641 10.1319 7.38455 10.0811C7.26269 10.0303 7.13198 10.0042 6.99997 10.0042C6.86796 10.0042 6.73725 10.0303 6.61539 10.0811C6.49353 10.1319 6.38293 10.2063 6.28997 10.3ZM6.99997 5C7.26519 5 7.51954 5.10536 7.70708 5.29289C7.89461 5.48043 7.99997 5.73478 7.99997 6C7.99997 6.26522 7.89461 6.51957 7.70708 6.70711C7.51954 6.89464 7.26519 7 6.99997 7C6.73475 7 6.4804 7.10536 6.29286 7.29289C6.10533 7.48043 5.99997 7.73478 5.99997 8C5.99997 8.26522 6.10533 8.51957 6.29286 8.70711C6.4804 8.89464 6.73475 9 6.99997 9C7.5265 8.99966 8.04366 8.86075 8.4995 8.59723C8.95534 8.33371 9.3338 7.95486 9.59684 7.49875C9.85989 7.04264 9.99826 6.52533 9.99804 5.9988C9.99783 5.47227 9.85905 4.95507 9.59564 4.49917C9.33223 4.04326 8.95347 3.66472 8.49742 3.40156C8.04137 3.13841 7.52409 2.99992 6.99756 3C6.47104 3.00008 5.9538 3.13874 5.49784 3.40204C5.04187 3.66534 4.66323 4.04401 4.39997 4.5C4.33385 4.61413 4.29096 4.74022 4.27378 4.871C4.2566 5.00178 4.26546 5.13466 4.29985 5.262C4.33424 5.38934 4.39348 5.50862 4.47417 5.61297C4.55485 5.71732 4.65538 5.80467 4.76997 5.87C4.99959 6.00037 5.27145 6.03464 5.52623 5.96532C5.78102 5.896 5.99805 5.72873 6.12997 5.5C6.21807 5.34739 6.34494 5.22078 6.49772 5.13298C6.65049 5.04517 6.82376 4.9993 6.99997 5ZM19 6H13C12.7348 6 12.4804 6.10536 12.2929 6.29289C12.1053 6.48043 12 6.73478 12 7C12 7.26522 12.1053 7.51957 12.2929 7.70711C12.4804 7.89464 12.7348 8 13 8H19C19.2652 8 19.5195 8.10536 19.7071 8.29289C19.8946 8.48043 20 8.73478 20 9V18.72L18.43 17.27C18.2455 17.0973 18.0026 17.0009 17.75 17H8.99997C8.73475 17 8.4804 16.8946 8.29286 16.7071C8.10533 16.5196 7.99997 16.2652 7.99997 16V15C7.99997 14.7348 7.89461 14.4804 7.70708 14.2929C7.51954 14.1054 7.26519 14 6.99997 14C6.73475 14 6.4804 14.1054 6.29286 14.2929C6.10533 14.4804 5.99997 14.7348 5.99997 15V16C5.99997 16.7956 6.31604 17.5587 6.87865 18.1213C7.44126 18.6839 8.20432 19 8.99997 19H17.36L20.36 21.73C20.5342 21.8936 20.7612 21.9894 21 22C21.1371 21.9985 21.2728 21.9714 21.4 21.92C21.5788 21.8419 21.731 21.7132 21.8376 21.5497C21.9442 21.3863 22.0006 21.1952 22 21V9C22 8.20435 21.6839 7.44129 21.1213 6.87868C20.5587 6.31607 19.7956 6 19 6Z" fill="black"/>
</svg>
