<svg width="24" height="24" viewBox="0 0 24 24" fill="none" xmlns="http://www.w3.org/2000/svg">
<path d="M21.71 6.53L20.29 5.12L21.71 3.71C21.8983 3.5217 22.0041 3.2663 22.0041 3C22.0041 2.7337 21.8983 2.47831 21.71 2.29C21.5217 2.1017 21.2663 1.99591 21 1.99591C20.7337 1.99591 20.4783 2.1017 20.29 2.29L9.74997 12.83C8.71601 12.1478 7.46564 11.8738 6.24114 12.0609C5.01664 12.248 3.90519 12.883 3.12216 13.8429C2.33913 14.8027 1.94026 16.019 2.00285 17.2561C2.06544 18.4933 2.58503 19.6631 3.46093 20.539C4.33684 21.415 5.5067 21.9345 6.74383 21.9971C7.98097 22.0597 9.19729 21.6608 10.1571 20.8778C11.117 20.0948 11.752 18.9833 11.9391 17.7588C12.1262 16.5343 11.8521 15.284 11.17 14.25L16.05 9.36L17.46 10.78C17.5534 10.8727 17.6642 10.946 17.7861 10.9958C17.9079 11.0455 18.0384 11.0708 18.17 11.07C18.3016 11.0708 18.432 11.0455 18.5539 10.9958C18.6757 10.946 18.7865 10.8727 18.88 10.78C18.9737 10.687 19.0481 10.5764 19.0989 10.4546C19.1496 10.3327 19.1758 10.202 19.1758 10.07C19.1758 9.93799 19.1496 9.80729 19.0989 9.68543C19.0481 9.56357 18.9737 9.45297 18.88 9.36L17.46 8L18.88 6.58L20.29 8C20.3834 8.09268 20.4942 8.16601 20.6161 8.21577C20.7379 8.26554 20.8684 8.29076 21 8.29C21.1316 8.29076 21.262 8.26554 21.3839 8.21577C21.5057 8.16601 21.6165 8.09268 21.71 8C21.8115 7.90636 21.8925 7.79271 21.9479 7.66621C22.0033 7.53971 22.0319 7.4031 22.0319 7.265C22.0319 7.1269 22.0033 6.9903 21.9479 6.8638C21.8925 6.7373 21.8115 6.62364 21.71 6.53ZM6.99997 20C6.40663 20 5.82661 19.8241 5.33326 19.4944C4.83992 19.1648 4.4554 18.6962 4.22834 18.1481C4.00127 17.5999 3.94186 16.9967 4.05762 16.4147C4.17337 15.8328 4.4591 15.2982 4.87865 14.8787C5.29821 14.4591 5.83276 14.1734 6.4147 14.0576C6.99665 13.9419 7.59985 14.0013 8.14802 14.2284C8.6962 14.4554 9.16474 14.8399 9.49438 15.3333C9.82403 15.8266 9.99997 16.4067 9.99997 17C9.99997 17.7957 9.6839 18.5587 9.12129 19.1213C8.55869 19.6839 7.79562 20 6.99997 20Z" fill="black"/>
</svg>
