<svg width="20" height="20" viewBox="0 0 20 20" fill="none" xmlns="http://www.w3.org/2000/svg">
<path d="M14.77 3.37C14.9996 3.50037 15.2715 3.53464 15.5263 3.46532C15.7811 3.396 15.9981 3.22873 16.13 3C16.2181 2.84739 16.345 2.72078 16.4977 2.63298C16.6505 2.54517 16.8238 2.4993 17 2.5C17.2652 2.5 17.5196 2.60536 17.7071 2.79289C17.8946 2.98043 18 3.23478 18 3.5C18 3.76522 17.8946 4.01957 17.7071 4.20711C17.5196 4.39464 17.2652 4.5 17 4.5C16.7348 4.5 16.4804 4.60536 16.2929 4.79289C16.1054 4.98043 16 5.23478 16 5.5C16 5.76522 16.1054 6.01957 16.2929 6.20711C16.4804 6.39464 16.7348 6.5 17 6.5C17.5265 6.49966 18.0437 6.36075 18.4995 6.09723C18.9554 5.83371 19.3338 5.45486 19.5969 4.99875C19.8599 4.54264 19.9983 4.02533 19.9981 3.4988C19.9979 2.97227 19.8591 2.45507 19.5957 1.99917C19.3323 1.54326 18.9535 1.16472 18.4975 0.901563C18.0414 0.638409 17.5241 0.499916 16.9976 0.5C16.4711 0.500084 15.9538 0.638743 15.4979 0.902044C15.0419 1.16534 14.6633 1.54401 14.4 2C14.3339 2.11413 14.291 2.24022 14.2738 2.371C14.2566 2.50178 14.2655 2.63466 14.2999 2.762C14.3343 2.88934 14.3935 3.00862 14.4742 3.11297C14.5549 3.21732 14.6554 3.30467 14.77 3.37ZM19 11.5C18.7348 11.5 18.4804 11.6054 18.2929 11.7929C18.1054 11.9804 18 12.2348 18 12.5V16.5C18 16.7652 17.8946 17.0196 17.7071 17.2071C17.5196 17.3946 17.2652 17.5 17 17.5H3C2.73478 17.5 2.48043 17.3946 2.29289 17.2071C2.10536 17.0196 2 16.7652 2 16.5V6.91L7.88 12.8C8.4425 13.3618 9.205 13.6774 10 13.6774C10.795 13.6774 11.5575 13.3618 12.12 12.8L13.76 11.16C13.8532 11.0668 13.9272 10.9561 13.9777 10.8342C14.0281 10.7124 14.0541 10.5819 14.0541 10.45C14.0541 10.3181 14.0281 10.1876 13.9777 10.0658C13.9272 9.94393 13.8532 9.83324 13.76 9.74C13.6668 9.64676 13.5561 9.5728 13.4342 9.52234C13.3124 9.47188 13.1819 9.44591 13.05 9.44591C12.9181 9.44591 12.7876 9.47188 12.6658 9.52234C12.5439 9.5728 12.4332 9.64676 12.34 9.74L10.7 11.38C10.5131 11.5632 10.2618 11.6659 10 11.6659C9.73825 11.6659 9.48693 11.5632 9.3 11.38L3.41 5.5H11C11.2652 5.5 11.5196 5.39464 11.7071 5.20711C11.8946 5.01957 12 4.76522 12 4.5C12 4.23478 11.8946 3.98043 11.7071 3.79289C11.5196 3.60536 11.2652 3.5 11 3.5H3C2.20435 3.5 1.44129 3.81607 0.87868 4.37868C0.316071 4.94129 0 5.70435 0 6.5V16.5C0 17.2956 0.316071 18.0587 0.87868 18.6213C1.44129 19.1839 2.20435 19.5 3 19.5H17C17.7956 19.5 18.5587 19.1839 19.1213 18.6213C19.6839 18.0587 20 17.2956 20 16.5V12.5C20 12.2348 19.8946 11.9804 19.7071 11.7929C19.5196 11.6054 19.2652 11.5 19 11.5ZM16.29 7.79C16.1963 7.88296 16.1219 7.99356 16.0711 8.11542C16.0203 8.23728 15.9942 8.36799 15.9942 8.5C15.9942 8.63201 16.0203 8.76272 16.0711 8.88458C16.1219 9.00644 16.1963 9.11704 16.29 9.21L16.44 9.33C16.4957 9.36785 16.5563 9.39811 16.62 9.42C16.6767 9.44883 16.7374 9.46905 16.8 9.48H17C17.1986 9.48115 17.3931 9.42313 17.5586 9.31333C17.7241 9.20353 17.8532 9.04692 17.9294 8.86348C18.0055 8.68004 18.0254 8.47807 17.9863 8.28332C17.9472 8.08857 17.851 7.90987 17.71 7.77C17.6157 7.67757 17.5041 7.60472 17.3815 7.55566C17.2589 7.5066 17.1278 7.4823 16.9958 7.48416C16.8638 7.48602 16.7335 7.514 16.6123 7.56649C16.4912 7.61899 16.3816 7.69495 16.29 7.79Z" fill="black"/>
</svg>
